<svg width="28" height="12" viewBox="0 0 28 12" fill="none" xmlns="http://www.w3.org/2000/svg">
<path d="M22.5333 6.088C22.7413 6.088 22.9199 6.04 23.0693 5.944C23.2186 5.848 23.3653 5.728 23.5093 5.584C23.6586 5.44 23.8293 5.30133 24.0213 5.168C24.2133 5.02933 24.4533 4.92 24.7413 4.84C25.0293 4.75467 25.3919 4.72533 25.8293 4.752V6.376C25.5573 6.38133 25.3333 6.42933 25.1573 6.52C24.9813 6.60533 24.8186 6.712 24.6693 6.84C24.5199 6.96267 24.3573 7.088 24.1813 7.216C24.0053 7.33867 23.7866 7.44267 23.5253 7.528C23.2693 7.61333 22.9386 7.656 22.5333 7.656C22.1386 7.656 21.8053 7.6 21.5333 7.488C21.2666 7.37067 21.0373 7.22933 20.8453 7.064C20.6586 6.89333 20.4879 6.72533 20.3333 6.56C20.1839 6.38933 20.0293 6.248 19.8693 6.136C19.7146 6.01867 19.5359 5.96 19.3333 5.96C19.1306 5.96 18.9519 6.01333 18.7973 6.12C18.6426 6.22667 18.4879 6.36 18.3332 6.52C18.1786 6.68 18.0079 6.84 17.8212 7C17.6292 7.16 17.3999 7.29333 17.1332 7.4C16.8666 7.50667 16.5332 7.56 16.1332 7.56C15.7332 7.56 15.3972 7.50933 15.1252 7.408C14.8479 7.30667 14.6159 7.184 14.4292 7.04C14.2426 6.89067 14.0772 6.74133 13.9332 6.592C13.7839 6.44267 13.6319 6.32 13.4772 6.224C13.3226 6.12267 13.1412 6.072 12.9332 6.072C12.7252 6.072 12.5439 6.12533 12.3892 6.232C12.2292 6.33867 12.0746 6.472 11.9252 6.632C11.7706 6.78667 11.5999 6.944 11.4132 7.104C11.2212 7.25867 10.9946 7.38933 10.7332 7.496C10.4666 7.60267 10.1332 7.656 9.73325 7.656C9.33858 7.656 9.00792 7.6 8.74125 7.488C8.46925 7.37067 8.23992 7.22933 8.05325 7.064C7.86125 6.89333 7.69058 6.72533 7.54125 6.56C7.38658 6.38933 7.23192 6.248 7.07725 6.136C6.91725 6.01867 6.73592 5.96 6.53325 5.96C6.33058 5.96 6.15192 6.01333 5.99725 6.12C5.84258 6.22667 5.68792 6.36 5.53325 6.52C5.37858 6.68 5.20792 6.84 5.02125 7C4.82925 7.16 4.59992 7.29333 4.33325 7.4C4.06658 7.50667 3.73325 7.56 3.33325 7.56C2.94925 7.56 2.56258 7.45867 2.17325 7.256C1.78392 7.048 1.43725 6.78667 1.13325 6.472C0.82925 6.152 0.613249 5.82133 0.485249 5.48L1.89325 4.816C2.05325 5.16267 2.26658 5.46133 2.53325 5.712C2.79458 5.96267 3.06125 6.088 3.33325 6.088C3.54125 6.088 3.72258 6.03467 3.87725 5.928C4.02658 5.82133 4.17858 5.688 4.33325 5.528C4.48792 5.368 4.66125 5.208 4.85325 5.048C5.03992 4.888 5.26925 4.75467 5.54125 4.648C5.80792 4.54133 6.13858 4.488 6.53325 4.488C6.93325 4.488 7.26658 4.54133 7.53325 4.648C7.79992 4.75467 8.02925 4.888 8.22125 5.048C8.40792 5.208 8.57858 5.368 8.73325 5.528C8.88792 5.688 9.04258 5.82133 9.19725 5.928C9.35192 6.03467 9.53058 6.088 9.73325 6.088C9.93592 6.088 10.1146 6.03467 10.2692 5.928C10.4239 5.82133 10.5786 5.688 10.7332 5.528C10.8879 5.368 11.0612 5.208 11.2532 5.048C11.4399 4.888 11.6692 4.75467 11.9412 4.648C12.2079 4.54133 12.5386 4.488 12.9332 4.488C13.3386 4.488 13.6772 4.54133 13.9492 4.648C14.2212 4.75467 14.4506 4.888 14.6372 5.048C14.8239 5.208 14.9919 5.368 15.1412 5.528C15.2906 5.688 15.4426 5.82133 15.5972 5.928C15.7466 6.03467 15.9252 6.088 16.1332 6.088C16.3412 6.088 16.5226 6.03467 16.6772 5.928C16.8266 5.82133 16.9786 5.688 17.1332 5.528C17.2879 5.368 17.4612 5.208 17.6532 5.048C17.8399 4.888 18.0692 4.75467 18.3412 4.648C18.6079 4.54133 18.9386 4.488 19.3333 4.488C19.7279 4.488 20.0586 4.54133 20.3253 4.648C20.5973 4.75467 20.8266 4.888 21.0133 5.048C21.2053 5.208 21.3786 5.368 21.5333 5.528C21.6879 5.688 21.8426 5.82133 21.9973 5.928C22.1519 6.03467 22.3306 6.088 22.5333 6.088ZM23.2133 0.927999L27.7493 5.992L23.2133 11.056L21.9653 9.992L23.8133 7.968C24.0693 7.69067 24.2959 7.45867 24.4933 7.272C24.6959 7.08 24.9226 6.90667 25.1733 6.752V5.232C24.9226 5.07733 24.6959 4.90667 24.4933 4.72C24.2959 4.528 24.0693 4.29333 23.8133 4.016L21.9653 1.992L23.2133 0.927999Z" fill="white"/>
</svg>
