<svg width="32" height="32" viewBox="0 0 32 32" fill="none" xmlns="http://www.w3.org/2000/svg">
<g clip-path="url(#clip0_716_1412)">
<path fill-rule="evenodd" clip-rule="evenodd" d="M16 2.66675C8.63596 2.66675 2.66663 8.63608 2.66663 16.0001C2.66663 18.5201 3.36663 20.8801 4.58396 22.8907L3.39463 26.9334C3.32634 27.1655 3.32185 27.4117 3.38162 27.6462C3.44139 27.8806 3.56322 28.0947 3.73431 28.2657C3.90539 28.4368 4.1194 28.5587 4.35385 28.6184C4.5883 28.6782 4.83452 28.6737 5.06663 28.6054L9.10929 27.4161C11.1875 28.6735 13.5709 29.3367 16 29.3334C23.364 29.3334 29.3333 23.3641 29.3333 16.0001C29.3333 8.63608 23.364 2.66675 16 2.66675ZM12.984 19.0174C15.6813 21.7134 18.256 22.0694 19.1653 22.1027C20.548 22.1534 21.8946 21.0974 22.4186 19.8721C22.4848 19.7196 22.5088 19.5523 22.4882 19.3874C22.4675 19.2225 22.403 19.0662 22.3013 18.9347C21.5706 18.0014 20.5826 17.3307 19.6173 16.6641C19.4157 16.5247 19.1681 16.4688 18.9262 16.5081C18.6843 16.5474 18.4671 16.6788 18.32 16.8747L17.52 18.0947C17.4779 18.1603 17.4124 18.2074 17.3368 18.2262C17.2612 18.245 17.1812 18.2343 17.1133 18.1961C16.5706 17.8854 15.78 17.3574 15.212 16.7894C14.644 16.2214 14.148 15.4667 13.8693 14.9587C13.8347 14.8942 13.8248 14.8193 13.8412 14.748C13.8576 14.6767 13.8993 14.6137 13.9586 14.5707L15.1906 13.6561C15.3664 13.5032 15.4799 13.291 15.5094 13.0599C15.5389 12.8288 15.4824 12.5949 15.3506 12.4027C14.7533 11.5281 14.0573 10.4161 13.048 9.67875C12.9177 9.58435 12.7651 9.52549 12.6052 9.50796C12.4453 9.49043 12.2836 9.51482 12.136 9.57875C10.9093 10.1041 9.84796 11.4507 9.89863 12.8361C9.93196 13.7454 10.288 16.3201 12.984 19.0174Z" fill="#ABB2BF"/>
</g>
<defs>
<clipPath id="clip0_716_1412">
<rect width="32" height="32" fill="white"/>
</clipPath>
</defs>
</svg>
